<?xml version="1.0" encoding="UTF-8" standalone="no"?> <!-- Created with Vectornator for iOS (http://vectornator.io/) --><!DOCTYPE svg PUBLIC "-//W3C//DTD SVG 1.1//EN" "http://www.w3.org/Graphics/SVG/1.1/DTD/svg11.dtd">
<svg height="100%" style="fill-rule:nonzero;clip-rule:evenodd;stroke-linecap:round;stroke-linejoin:round;" xmlns:xlink="http://www.w3.org/1999/xlink" xmlns="http://www.w3.org/2000/svg" xml:space="preserve" width="100%" xmlns:vectornator="http://vectornator.io" version="1.1" viewBox="0 0 841.995 595.35">
<metadata>
<vectornator:setting key="DimensionsVisible" value="1"/>
<vectornator:setting key="PencilOnly" value="0"/>
<vectornator:setting key="SnapToPoints" value="0"/>
<vectornator:setting key="OutlineMode" value="0"/>
<vectornator:setting key="CMYKEnabledKey" value="0"/>
<vectornator:setting key="RulersVisible" value="1"/>
<vectornator:setting key="SnapToEdges" value="0"/>
<vectornator:setting key="GuidesVisible" value="1"/>
<vectornator:setting key="DisplayWhiteBackground" value="0"/>
<vectornator:setting key="doHistoryDisabled" value="0"/>
<vectornator:setting key="SnapToGuides" value="1"/>
<vectornator:setting key="TimeLapseWatermarkDisabled" value="0"/>
<vectornator:setting key="Units" value="Millimeters"/>
<vectornator:setting key="DynamicGuides" value="0"/>
<vectornator:setting key="IsolateActiveLayer" value="0"/>
<vectornator:setting key="SnapToGrid" value="0"/>
</metadata>
<defs/>
<g id="Layer 1" vectornator:layerName="Layer 1">
<path stroke="#000000" stroke-width="1" d="M404.344+118.406C400.884+118.374+396.094+118.409+390.906+118.594C375.553+119.142+353.169+121.29+347.906+121.875C324.265+124.502+297.777+128.346+276.281+139.094C270.124+142.172+258.594+148.124+258.594+155.844C258.594+256.774+258.754+357.695+259.062+458.625C259.073+462.123+262.507+465.789+264.656+467.938C283.354+486.635+322.767+489.747+346.969+492.594C359.075+494.018+371.523+495.375+383.719+495.375C396.433+495.375+409.163+495.151+421.875+494.906C450.234+494.361+524.632+490.137+545.125+462.812C552.396+453.118+547.257+438.648+547.438+426.531C557.406+430.519+569.082+430.362+579.531+429.781C656.253+425.519+667.393+367.118+664.188+301.406C663.001+277.09+659.102+241.915+640.469+223.281C621.958+204.771+600.91+197.627+572.562+201.406C564.948+202.422+553.209+210.719+546.969+210.719C546.808+192.112+551.174+172.798+546.062+154.906C539.499+131.934+479.629+124.211+460.938+121.875C444.072+119.767+409.91+118.609+409.844+118.625C409.94+118.526+407.803+118.439+404.344+118.406ZM392+129.906C410.911+130.251+442.648+131.293+461.406+133.5C469.911+134.501+535.344+145.435+535.344+158.625C535.344+166.373+487.263+178.196+481.875+179.094C432.627+187.302+381.951+187.629+332.562+180.031C324.476+178.787+271.875+168.625+269.781+158.156C268.608+152.289+289.893+145.109+293.969+143.75C319.088+135.377+364.846+132.423+391.438+129.938C391.44+129.937+391.865+129.914+392+129.906ZM583.66+236.843C597.672+236.843+612.308+247.17+617.559+260.162C619.242+264.326+622.659+271.619+624.362+280.432C626.671+292.38+627.075+306.466+627.362+313.213C627.669+320.414+628.2+349.639+620.487+367.495C613.205+384.354+597.875+390.081+591.076+390.37C577.076+390.965+547.709+392.914+547.114+378.914C546.72+369.651+547.658+266.788+547.658+253.141C547.658+247.37+554.513+245.037+558.877+242.531C565.109+238.951+575.418+236.843+583.66+236.843Z" fill="#ffffff" stroke-linecap="round" opacity="1" stroke-linejoin="round"/>
<path stroke="#df1c28" stroke-width="1" d="M382.308+308.054C382.65+308.054+382.65+308.054+382.992+308.054C388.64+291.111+401.481+282.724+418.935+282.724C437.893+282.724+442.213+310.791+432.969+323.116C424.906+333.867+415.581+342.227+405.242+350.842C402.309+353.287+384.542+370.012+382.992+370.012C381.574+370.012+366.441+355.857+364.508+353.923C351.916+341.331+315.217+319.234+329.935+294.704C344.354+270.673+376.727+285.73+382.308+308.054Z" fill="#df1c28" stroke-linecap="round" opacity="1" stroke-linejoin="round"/>
<g opacity="1">
<path d="M277.81+310.618L321.21+288.618L321.21+301.418L291.51+316.118L321.11+330.918L321.21+343.718L277.81+321.518L277.81+310.618Z" opacity="1" fill="#000000"/>
<path d="M457.01+326.818L453.81+335.018L452.11+339.118L448.11+350.418L445.11+359.518C443.377+364.651+442.027+367.751+441.06+368.818C440.093+369.885+437.977+370.418+434.71+370.418C429.643+370.418+427.11+369.418+427.11+367.418C427.11+366.285+428.377+362.918+430.91+357.318C431.443+356.118+432.577+353.485+434.31+349.418C436.977+343.085+438.677+338.985+439.41+337.118L448.71+313.018L453.91+298.218L456.71+289.718C457.843+286.185+458.993+283.851+460.16+282.718C461.327+281.585+463.143+281.018+465.61+281.018C471.143+281.018+473.91+282.151+473.91+284.418C473.91+285.351+473.377+287.018+472.31+289.418L469.81+295.018C469.543+295.685+468.343+298.751+466.21+304.218C465.543+305.818+464.01+309.485+461.61+315.218C460.81+317.151+459.277+321.018+457.01+326.818Z" opacity="1" fill="#000000"/>
<path d="M529.41+321.618L486.01+343.718L486.01+330.818L515.71+316.118L486.11+301.418L486.01+288.618L529.41+310.718L529.41+321.618Z" opacity="1" fill="#000000"/>
</g>
<path d="M404.936+130.19C433.876+129.156+464.981+131.48+493.308+138.562C501.512+140.613+535.168+146.951+535.168+158.562C535.168+162.279+525.103+165.92+522.145+167.399C507.089+174.927+487.524+178.059+470.982+180.422C454.956+182.712+438.812+184.329+422.61+184.608C400.994+184.981+380.247+185.458+358.889+183.678C331.665+181.41+290.188+178.698+269.586+158.097C279.752+137.766+370.456+131.885+374.501+131.346C378.96+130.751+392.36+130.019+392.36+130.019C392.36+130.019+403.086+130.256+404.936+130.19" opacity="1" fill="#000000"/>
<g opacity="1">
<path d="M299.716+390.952C303.016+390.952+305.483+392.235+307.116+394.802L307.116+389.752C307.116+388.419+307.083+387.602+307.016+387.302C306.849+386.269+306.383+385.752+305.616+385.752C305.349+385.752+304.974+385.802+304.491+385.902C304.008+386.002+303.633+386.052+303.366+386.052C302.133+386.052+301.516+385.519+301.516+384.452C301.516+383.352+302.349+382.802+304.016+382.802C304.283+382.802+304.766+382.835+305.466+382.902C306.533+383.002+307.083+383.052+307.116+383.052C307.416+383.052+307.849+383.019+308.416+382.952C308.983+382.885+309.416+382.852+309.716+382.852C310.649+382.852+311.116+383.519+311.116+384.852L311.116+385.402C311.083+385.502+311.049+386.385+311.016+388.052C311.016+388.252+310.966+389.535+310.866+391.902C310.799+393.569+310.766+394.835+310.766+395.702L310.766+400.602L310.866+408.952C310.899+411.152+310.999+412.519+311.166+413.052C311.333+413.585+311.733+413.852+312.366+413.852C312.799+413.852+313.133+413.819+313.366+413.752C313.899+413.685+314.266+413.652+314.466+413.652C315.699+413.652+316.316+414.202+316.316+415.302C316.316+416.435+315.566+417.002+314.066+417.002C313.733+417.002+313.224+416.96+312.541+416.877C311.858+416.794+311.349+416.752+311.016+416.752C310.916+416.752+310.533+416.785+309.866+416.852C309.466+416.952+309.116+417.002+308.816+417.002C307.916+417.002+307.466+416.402+307.466+415.202L307.466+414.952L307.516+414.102C305.749+416.469+303.183+417.652+299.816+417.652C296.416+417.652+293.683+416.419+291.616+413.952C289.549+411.485+288.516+408.252+288.516+404.252C288.516+400.219+289.533+396.994+291.566+394.577C293.599+392.16+296.316+390.952+299.716+390.952ZM306.816+408.602C306.949+407.502+307.016+406.085+307.016+404.352C307.016+402.119+306.933+400.602+306.766+399.802C306.466+398.135+305.749+396.835+304.616+395.902C303.283+394.802+301.749+394.252+300.016+394.252C297.683+394.252+295.858+395.135+294.541+396.902C293.224+398.669+292.566+401.085+292.566+404.152C292.566+407.319+293.249+409.81+294.616+411.627C295.983+413.444+297.849+414.352+300.216+414.352C302.016+414.352+303.516+413.827+304.716+412.777C305.916+411.727+306.616+410.335+306.816+408.602Z" opacity="1" fill="#000000"/>
<path d="M341.216+402.102C341.216+403.369+341.133+404.144+340.966+404.427C340.799+404.71+340.316+404.852+339.516+404.852L323.616+404.852C323.183+404.852+322.899+404.91+322.766+405.027C322.633+405.144+322.566+405.335+322.566+405.602C322.566+408.102+323.316+410.185+324.816+411.852C326.316+413.519+328.183+414.352+330.416+414.352C331.883+414.352+333.224+413.952+334.441+413.152C335.658+412.352+336.449+411.335+336.816+410.102L337.266+408.652C337.499+407.852+338.049+407.452+338.916+407.452C340.149+407.452+340.766+408.085+340.766+409.352C340.766+411.519+339.666+413.444+337.466+415.127C335.266+416.81+332.766+417.652+329.966+417.652C326.466+417.652+323.683+416.477+321.616+414.127C319.549+411.777+318.516+408.619+318.516+404.652C318.516+400.585+319.616+397.285+321.816+394.752C324.016+392.219+326.883+390.952+330.416+390.952C333.549+390.952+336.133+392.002+338.166+394.102C340.199+396.202+341.216+398.869+341.216+402.102ZM323.066+400.802C323.066+401.269+323.433+401.502+324.166+401.502L336.116+401.502C336.816+401.502+337.166+401.269+337.166+400.802C337.166+399.035+336.499+397.502+335.166+396.202C333.833+394.902+332.266+394.252+330.466+394.252C328.599+394.252+326.899+394.927+325.366+396.277C323.833+397.627+323.066+399.135+323.066+400.802Z" opacity="1" fill="#000000"/>
<path d="M352.366+397.752L358.216+413.352L363.866+397.752C364.199+396.819+364.366+396.219+364.366+395.952C364.366+395.219+364.016+394.852+363.316+394.852C363.049+394.852+362.658+394.91+362.141+395.027C361.624+395.144+361.233+395.202+360.966+395.202C359.866+395.202+359.316+394.652+359.316+393.552C359.316+392.385+360.116+391.802+361.716+391.802C361.783+391.802+361.916+391.802+362.116+391.802C362.283+391.835+362.416+391.852+362.516+391.852L364.616+392.152C365.083+392.219+365.566+392.252+366.066+392.252C366.733+392.252+367.833+392.169+369.366+392.002C370.299+391.902+370.966+391.852+371.366+391.852C372.799+391.852+373.516+392.402+373.516+393.502C373.516+394.602+372.933+395.152+371.766+395.152C371.399+395.152+371.133+395.119+370.966+395.052C370.466+394.952+370.116+394.902+369.916+394.902C369.316+394.902+368.699+395.702+368.066+397.302L361.016+415.302C360.416+416.835+359.399+417.602+357.966+417.602C356.599+417.602+355.616+416.835+355.016+415.302L347.816+396.802C347.349+395.569+346.799+394.952+346.166+394.952C345.933+394.952+345.583+395.002+345.116+395.102C344.649+395.202+344.299+395.252+344.066+395.252C342.966+395.252+342.416+394.735+342.416+393.702C342.416+392.502+343.183+391.902+344.716+391.902C344.983+391.902+345.183+391.919+345.316+391.952L347.416+392.152C348.116+392.219+348.816+392.252+349.516+392.252C350.083+392.252+350.916+392.202+352.016+392.102L353.666+391.952C353.833+391.919+354.066+391.902+354.366+391.902C355.833+391.902+356.566+392.469+356.566+393.602C356.566+394.669+355.933+395.202+354.666+395.202C354.266+395.202+353.983+395.185+353.816+395.152C353.183+395.019+352.783+394.952+352.616+394.952C352.083+394.952+351.816+395.185+351.816+395.652C351.816+395.885+351.883+396.219+352.016+396.652L352.366+397.752Z" opacity="1" fill="#000000"/>
<path d="M382.766+395.902L382.816+411.452C382.849+413.152+383.299+414.002+384.166+414.002C384.366+414.002+384.783+413.919+385.416+413.752C385.816+413.685+386.083+413.652+386.216+413.652C387.316+413.652+387.866+414.219+387.866+415.352C387.866+416.452+387.183+417.002+385.816+417.002C385.283+417.002+384.433+416.935+383.266+416.802C382.099+416.669+381.199+416.602+380.566+416.602C380.033+416.602+379.233+416.669+378.166+416.802C377.099+416.935+376.316+417.002+375.816+417.002L375.566+417.002C374.166+417.002+373.466+416.402+373.466+415.202C373.466+414.169+374.033+413.652+375.166+413.652C375.233+413.652+375.349+413.652+375.516+413.652C375.716+413.685+375.866+413.702+375.966+413.702C376.799+413.835+377.283+413.902+377.416+413.902C378.016+413.902+378.391+413.644+378.541+413.127C378.691+412.61+378.783+411.269+378.816+409.102L378.866+405.602L379.016+397.852L378.966+388.952C378.933+387.952+378.883+387.285+378.816+386.952C378.583+386.185+378.116+385.802+377.416+385.802C377.316+385.802+376.883+385.869+376.116+386.002C375.749+386.069+375.449+386.102+375.216+386.102C374.083+386.102+373.516+385.569+373.516+384.502C373.516+383.402+374.183+382.852+375.516+382.852C375.883+382.852+376.199+382.869+376.466+382.902L377.666+383.052C378.199+383.119+378.649+383.152+379.016+383.152C379.349+383.152+379.849+383.094+380.516+382.977C381.183+382.86+381.683+382.802+382.016+382.802C382.783+382.802+383.166+383.285+383.166+384.252C383.166+384.585+383.149+384.835+383.116+385.002C382.883+387.569+382.766+391.202+382.766+395.902Z" opacity="1" fill="#000000"/>
<path d="M401.916+417.652C398.416+417.652+395.616+416.444+393.516+414.027C391.416+411.61+390.366+408.369+390.366+404.302C390.366+400.235+391.424+396.994+393.541+394.577C395.658+392.16+398.499+390.952+402.066+390.952C405.699+390.952+408.566+392.135+410.666+394.502C412.766+396.869+413.816+400.085+413.816+404.152C413.816+408.219+412.733+411.485+410.566+413.952C408.399+416.419+405.516+417.652+401.916+417.652ZM402.166+394.252C399.833+394.252+397.999+395.069+396.666+396.702C395.333+398.335+394.599+400.652+394.466+403.652C394.466+403.652+394.466+403.869+394.466+404.302C394.466+407.435+395.124+409.894+396.441+411.677C397.758+413.46+399.599+414.352+401.966+414.352C404.399+414.352+406.308+413.46+407.691+411.677C409.074+409.894+409.766+407.419+409.766+404.252C409.766+397.585+407.233+394.252+402.166+394.252Z" opacity="1" fill="#000000"/>
<path d="M425.166+397.752L431.016+413.352L436.666+397.752C436.999+396.819+437.166+396.219+437.166+395.952C437.166+395.219+436.816+394.852+436.116+394.852C435.849+394.852+435.458+394.91+434.941+395.027C434.424+395.144+434.033+395.202+433.766+395.202C432.666+395.202+432.116+394.652+432.116+393.552C432.116+392.385+432.916+391.802+434.516+391.802C434.583+391.802+434.716+391.802+434.916+391.802C435.083+391.835+435.216+391.852+435.316+391.852L437.416+392.152C437.883+392.219+438.366+392.252+438.866+392.252C439.533+392.252+440.633+392.169+442.166+392.002C443.099+391.902+443.766+391.852+444.166+391.852C445.599+391.852+446.316+392.402+446.316+393.502C446.316+394.602+445.733+395.152+444.566+395.152C444.199+395.152+443.933+395.119+443.766+395.052C443.266+394.952+442.916+394.902+442.716+394.902C442.116+394.902+441.499+395.702+440.866+397.302L433.816+415.302C433.216+416.835+432.199+417.602+430.766+417.602C429.399+417.602+428.416+416.835+427.816+415.302L420.616+396.802C420.149+395.569+419.599+394.952+418.966+394.952C418.733+394.952+418.383+395.002+417.916+395.102C417.449+395.202+417.099+395.252+416.866+395.252C415.766+395.252+415.216+394.735+415.216+393.702C415.216+392.502+415.983+391.902+417.516+391.902C417.783+391.902+417.983+391.919+418.116+391.952L420.216+392.152C420.916+392.219+421.616+392.252+422.316+392.252C422.883+392.252+423.716+392.202+424.816+392.102L426.466+391.952C426.633+391.919+426.866+391.902+427.166+391.902C428.633+391.902+429.366+392.469+429.366+393.602C429.366+394.669+428.733+395.202+427.466+395.202C427.066+395.202+426.783+395.185+426.616+395.152C425.983+395.019+425.583+394.952+425.416+394.952C424.883+394.952+424.616+395.185+424.616+395.652C424.616+395.885+424.683+396.219+424.816+396.652L425.166+397.752Z" opacity="1" fill="#000000"/>
<path d="M470.466+402.102C470.466+403.369+470.383+404.144+470.216+404.427C470.049+404.71+469.566+404.852+468.766+404.852L452.866+404.852C452.433+404.852+452.149+404.91+452.016+405.027C451.883+405.144+451.816+405.335+451.816+405.602C451.816+408.102+452.566+410.185+454.066+411.852C455.566+413.519+457.433+414.352+459.666+414.352C461.133+414.352+462.474+413.952+463.691+413.152C464.908+412.352+465.699+411.335+466.066+410.102L466.516+408.652C466.749+407.852+467.299+407.452+468.166+407.452C469.399+407.452+470.016+408.085+470.016+409.352C470.016+411.519+468.916+413.444+466.716+415.127C464.516+416.81+462.016+417.652+459.216+417.652C455.716+417.652+452.933+416.477+450.866+414.127C448.799+411.777+447.766+408.619+447.766+404.652C447.766+400.585+448.866+397.285+451.066+394.752C453.266+392.219+456.133+390.952+459.666+390.952C462.799+390.952+465.383+392.002+467.416+394.102C469.449+396.202+470.466+398.869+470.466+402.102ZM452.316+400.802C452.316+401.269+452.683+401.502+453.416+401.502L465.366+401.502C466.066+401.502+466.416+401.269+466.416+400.802C466.416+399.035+465.749+397.502+464.416+396.202C463.083+394.902+461.516+394.252+459.716+394.252C457.849+394.252+456.149+394.927+454.616+396.277C453.083+397.627+452.316+399.135+452.316+400.802Z" opacity="1" fill="#000000"/>
<path d="M481.716+393.252L481.716+394.602C483.449+392.169+485.766+390.952+488.666+390.952C490.999+390.952+492.891+391.61+494.341+392.927C495.791+394.244+496.516+395.935+496.516+398.002C496.516+399.469+496.149+400.66+495.416+401.577C494.683+402.494+493.716+402.952+492.516+402.952C491.749+402.952+491.099+402.719+490.566+402.252C490.033+401.785+489.766+401.219+489.766+400.552C489.766+400.019+489.966+399.544+490.366+399.127C490.766+398.71+491.233+398.502+491.766+398.502C491.866+398.502+492.083+398.552+492.416+398.652C492.616+398.252+492.716+397.885+492.716+397.552C492.716+396.585+492.291+395.769+491.441+395.102C490.591+394.435+489.533+394.102+488.266+394.102C485.666+394.102+483.933+395.269+483.066+397.602C482.533+399.035+482.266+401.202+482.266+404.102L482.266+407.402C482.266+409.635+482.283+410.885+482.316+411.152C482.483+413.052+482.999+414.002+483.866+414.002C484.299+414.002+484.749+413.935+485.216+413.802C485.583+413.702+485.899+413.652+486.166+413.652C487.233+413.652+487.766+414.185+487.766+415.252C487.766+416.419+487.083+417.002+485.716+417.002L485.516+417.002C485.016+417.002+484.258+416.944+483.241+416.827C482.224+416.71+481.466+416.652+480.966+416.652C479.633+416.652+478.583+416.685+477.816+416.752L475.016+417.002C473.649+417.002+472.966+416.419+472.966+415.252C472.966+414.219+473.599+413.702+474.866+413.702C475.199+413.702+475.449+413.719+475.616+413.752L476.366+413.902C476.699+413.969+476.933+414.002+477.066+414.002C477.899+414.002+478.349+413.235+478.416+411.702L478.516+409.152L478.366+397.802C478.266+395.835+477.766+394.852+476.866+394.852C476.599+394.852+476.233+394.902+475.766+395.002C475.299+395.102+474.933+395.152+474.666+395.152C473.566+395.152+473.016+394.619+473.016+393.552C473.016+392.385+473.733+391.802+475.166+391.802C475.499+391.802+475.999+391.844+476.666+391.927C477.333+392.01+477.833+392.052+478.166+392.052C478.433+392.052+478.866+392.019+479.466+391.952C479.733+391.885+480.049+391.852+480.416+391.852C481.283+391.852+481.716+392.319+481.716+393.252Z" opacity="1" fill="#000000"/>
<path d="M509.266+390.952C511.499+390.952+513.366+391.535+514.866+392.702L514.866+392.502C514.866+391.269+515.399+390.652+516.466+390.652C517.566+390.652+518.116+391.185+518.116+392.252C518.116+392.452+518.083+392.952+518.016+393.752C517.883+394.419+517.816+395.085+517.816+395.752C517.816+396.152+517.874+396.735+517.991+397.502C518.108+398.269+518.166+398.852+518.166+399.252C518.166+400.519+517.616+401.152+516.516+401.152C515.449+401.152+514.899+400.619+514.866+399.552L514.816+397.902C514.783+396.902+514.208+396.044+513.091+395.327C511.974+394.61+510.666+394.252+509.166+394.252C507.633+394.252+506.349+394.644+505.316+395.427C504.283+396.21+503.766+397.185+503.766+398.352C503.766+400.485+505.233+401.752+508.166+402.152L511.066+402.552C516.733+403.319+519.566+405.669+519.566+409.602C519.566+412.002+518.649+413.944+516.816+415.427C514.983+416.91+512.583+417.652+509.616+417.652C506.849+417.652+504.449+416.869+502.416+415.302C502.449+415.635+502.466+415.952+502.466+416.252C502.466+417.452+501.899+418.052+500.766+418.052C499.533+418.052+498.916+417.369+498.916+416.002C498.916+416.235+499.016+415.369+499.216+413.402C499.283+412.935+499.316+412.469+499.316+412.002C499.316+411.202+499.249+410.452+499.116+409.752C498.983+409.052+498.916+408.502+498.916+408.102C498.916+406.935+499.449+406.352+500.516+406.352C501.216+406.352+501.658+406.519+501.841+406.852C502.024+407.185+502.133+408.069+502.166+409.502C502.199+410.935+502.949+412.102+504.416+413.002C505.883+413.902+507.749+414.352+510.016+414.352C511.649+414.352+512.999+413.935+514.066+413.102C515.133+412.269+515.666+411.219+515.666+409.952C515.666+407.685+513.866+406.369+510.266+406.002C506.833+405.635+504.216+404.96+502.416+403.977C500.616+402.994+499.716+401.269+499.716+398.802C499.716+396.469+500.599+394.577+502.366+393.127C504.133+391.677+506.433+390.952+509.266+390.952Z" opacity="1" fill="#000000"/>
</g>
</g>
</svg>
